<svg xmlns="http://www.w3.org/2000/svg" version="1.0" width="494.000000pt" height="505.000000pt" viewBox="0 0 494.000000 505.000000" preserveAspectRatio="xMidYMid meet">

<g transform="translate(0.000000,505.000000) scale(0.100000,-0.100000)" fill="#ffffff" stroke="none">
<path d="M2620 4846 c-26 -53 -68 -73 -172 -81 -199 -15 -406 -60 -559 -121 -95 -38 -130 -41 -173 -19 -16 9 -30 14 -31 13 -1 -2 -7 -21 -13 -44 -15 -51 -26 -60 -137 -119 -174 -91 -313 -204 -397 -322 -33 -45 -33 -45 -80 -40 l-47 6 15 -49 14 -49 -39 -53 c-47 -61 -137 -240 -176 -348 -14 -41 -40 -127 -57 -190 -21 -81 -37 -123 -55 -142 l-25 -26 26 -44 c18 -30 26 -59 26 -90 0 -78 39 -331 65 -420 8 -26 11 -63 8 -82 -4 -28 -1 -36 16 -45 11 -7 21 -19 21 -28 0 -10 20 -58 44 -108 46 -92 125 -205 201 -285 31 -32 51 -67 70 -122 15 -43 30 -78 34 -78 3 0 15 7 25 15 33 25 87 18 142 -17 84 -54 264 -135 384 -174 110 -35 158 -64 172 -104 2 -8 15 -1 36 19 20 21 38 30 49 27 10 -3 114 -19 232 -36 234 -35 260 -44 304 -112 l24 -37 20 42 21 43 68 -7 c70 -6 199 3 266 20 52 12 122 48 174 87 43 33 47 34 138 34 101 0 105 2 106 65 0 11 30 52 67 90 190 202 315 353 412 497 55 82 90 110 164 130 36 9 46 16 41 28 -4 8 -9 38 -11 65 -7 74 25 174 115 355 l76 154 0 91 c1 66 -5 109 -21 160 -12 39 -32 130 -43 203 -11 73 -26 150 -34 171 -11 34 -11 43 5 72 27 50 24 69 -9 69 -26 0 -32 8 -75 98 -51 109 -154 267 -229 353 -44 51 -48 60 -48 109 l0 53 -29 -6 c-16 -3 -39 -9 -52 -12 -18 -4 -39 5 -84 40 -189 142 -460 229 -784 251 -103 7 -105 7 -145 44 l-41 38 -15 -32z m270 -166 c212 -25 368 -70 545 -156 92 -45 110 -59 231 -179 201 -200 311 -382 372 -617 24 -93 26 -121 27 -288 0 -209 -18 -321 -81 -501 -71 -205 -216 -495 -319 -637 -71 -98 -188 -218 -290 -295 -87 -65 -274 -161 -397 -201 -253 -84 -628 -88 -939 -10 -170 42 -403 132 -548 211 -346 188 -523 394 -590 687 -42 180 -55 462 -31 626 62 411 248 730 570 974 142 107 281 175 550 267 300 104 646 149 900 119z" fill="#ffffff"/>
<path d="M2480 4575 c-214 -27 -411 -81 -666 -183 -381 -153 -680 -478 -787 -857 -56 -198 -73 -360 -58 -547 28 -336 102 -515 285 -688 160 -152 427 -293 719 -380 108 -32 279 -70 318 -70 17 0 10 114 -8 140 -9 13 -69 75 -132 137 l-115 113 -84 0 -85 0 -92 90 -91 90 -47 -6 c-42 -6 -49 -4 -76 24 -40 40 -43 96 -6 136 19 21 33 26 69 26 69 0 106 -50 92 -122 -6 -30 0 -38 76 -115 l83 -83 57 0 c32 0 58 4 58 9 0 5 -21 26 -46 46 -58 48 -74 86 -74 176 l0 71 -66 69 c-37 38 -75 71 -86 75 -11 3 -62 6 -114 7 l-96 2 -59 63 c-55 58 -61 62 -105 62 -56 0 -79 12 -99 50 -24 46 -19 78 19 116 43 43 90 46 134 9 35 -30 47 -70 32 -109 -9 -26 -6 -32 44 -84 l55 -57 110 -3 111 -4 0 69 0 70 -74 72 c-62 60 -79 71 -99 66 -53 -14 -109 13 -180 89 -37 39 -75 83 -84 99 -10 15 -22 27 -28 27 -26 0 -55 46 -55 87 0 87 98 126 161 64 47 -48 38 -116 -21 -146 -17 -9 -30 -20 -30 -25 0 -5 34 -43 75 -85 l75 -76 65 -3 66 -2 77 -77 77 -77 6 -98 5 -97 2 100 2 100 -89 89 c-87 86 -90 89 -138 90 -43 2 -56 8 -101 46 -58 50 -68 70 -52 99 30 56 102 44 108 -19 3 -24 -2 -38 -14 -47 -17 -12 -16 -14 1 -33 14 -15 31 -20 68 -20 50 0 51 -1 146 -95 l96 -94 6 -128 5 -128 2 144 2 145 -98 98 c-83 83 -103 98 -130 98 -22 0 -36 7 -47 24 -35 53 16 111 73 83 23 -10 27 -19 28 -55 1 -41 6 -49 100 -143 l99 -99 -3 -153 -4 -153 36 -43 c35 -42 36 -46 35 -120 -1 -42 3 -85 9 -96 6 -11 85 -94 176 -185 l166 -165 0 105 0 106 -48 47 c-36 35 -55 47 -78 47 -56 0 -86 67 -46 103 41 37 109 1 97 -51 -5 -23 2 -35 45 -77 l50 -49 0 -123 c0 -110 2 -125 20 -143 30 -30 40 -63 40 -136 l0 -64 50 0 50 0 0 233 0 232 -80 80 c-73 73 -80 83 -80 119 0 37 -8 47 -132 173 l-133 134 -3 127 c-3 123 -4 128 -31 157 -15 17 -34 45 -41 63 -26 67 -134 135 -183 116 -23 -9 -64 21 -129 92 l-58 63 0 99 0 98 -40 39 c-38 37 -45 40 -96 40 -49 0 -59 4 -80 28 -35 41 -33 104 4 139 37 36 73 43 111 24 47 -25 65 -58 58 -111 -6 -43 -5 -46 43 -95 l50 -51 0 -93 0 -93 42 -52 c50 -61 82 -84 108 -76 35 11 103 -15 144 -57 43 -42 48 -42 105 1 17 13 22 24 17 38 -4 11 -65 79 -136 150 -101 99 -130 134 -130 155 0 16 -9 32 -25 42 -17 11 -25 26 -25 45 0 61 79 83 109 29 14 -24 13 -29 -12 -65 -15 -22 -27 -43 -27 -47 0 -5 61 -71 135 -146 105 -107 135 -143 135 -164 0 -20 9 -32 33 -46 78 -46 76 -144 -4 -185 l-29 -16 0 -111 0 -111 105 -106 105 -106 0 98 c0 96 0 97 -25 97 -63 0 -115 58 -115 129 0 37 6 49 39 82 35 35 44 39 89 39 45 0 56 -4 86 -35 48 -48 55 -91 25 -152 -22 -45 -23 -57 -21 -218 l3 -170 45 -45 44 -45 0 341 0 341 -119 121 -119 120 -4 70 -4 71 -112 109 c-102 99 -112 112 -112 145 0 28 -8 44 -35 71 -30 30 -35 42 -35 82 0 44 -3 50 -77 125 -71 74 -79 79 -109 73 -60 -11 -96 54 -54 96 39 39 100 12 100 -45 0 -12 29 -49 71 -90 73 -72 101 -118 93 -151 -2 -10 6 -35 18 -54 l23 -35 3 223 2 224 -25 30 c-29 34 -31 46 -9 76 17 25 71 31 92 10 20 -20 15 -76 -8 -88 -19 -10 -20 -21 -20 -295 0 -183 4 -285 10 -285 6 0 10 49 10 126 l0 126 30 28 c24 23 29 34 24 54 -9 38 19 76 56 76 36 0 60 -23 60 -59 0 -35 -28 -61 -67 -61 -19 0 -38 -9 -54 -26 -23 -25 -24 -29 -21 -167 l2 -142 73 -70 72 -70 3 99 3 98 -36 35 c-45 44 -47 83 -6 124 46 46 106 37 136 -21 21 -41 19 -55 -15 -93 l-30 -35 0 -184 0 -184 55 -54 55 -54 0 96 c0 82 -3 99 -18 110 -39 28 -34 90 8 103 72 23 114 -56 56 -105 -13 -10 -16 -35 -16 -125 0 -96 3 -114 18 -128 23 -21 32 -21 32 -1 0 9 33 50 72 91 l73 75 3 78 4 79 -71 75 -71 75 0 107 0 106 -115 118 -115 118 0 105 c0 100 -1 108 -25 131 -48 49 -17 126 51 126 72 0 102 -89 44 -132 -30 -22 -30 -23 -30 -117 l0 -96 78 -81 c119 -124 112 -124 112 -5 l0 100 -31 16 c-42 22 -64 75 -49 120 15 44 41 66 89 72 36 5 44 2 76 -30 28 -28 35 -43 35 -73 0 -31 -7 -44 -41 -74 l-40 -38 3 -226 3 -225 40 -41 c21 -22 43 -40 47 -40 4 0 8 68 8 152 l0 152 90 92 90 91 0 81 0 80 -35 21 c-36 21 -65 71 -65 111 0 11 9 39 20 60 66 129 253 66 237 -78 -4 -37 -13 -52 -46 -83 l-41 -38 0 -92 0 -92 -90 -91 -90 -92 0 -273 0 -272 -75 -79 -75 -79 0 -227 0 -228 35 34 c31 30 35 40 35 87 0 41 -4 54 -19 63 -43 22 -33 92 14 104 63 16 101 -59 53 -104 -16 -15 -22 -30 -20 -54 4 -46 -19 -97 -62 -136 -20 -18 -36 -43 -36 -54 0 -16 18 -3 80 60 l80 81 0 90 c0 83 -2 91 -25 113 -30 28 -33 70 -7 93 25 23 58 21 82 -3 27 -27 25 -53 -5 -86 -23 -25 -25 -34 -25 -127 l0 -100 -90 -91 -90 -92 0 -219 0 -219 55 54 55 54 0 68 c0 61 -2 69 -26 84 -102 67 -36 219 81 186 28 -8 34 -4 99 62 203 210 192 197 173 207 -39 22 -57 52 -57 97 0 39 5 49 41 82 l42 38 -5 67 -6 66 -86 88 -86 88 0 118 c0 110 -1 119 -25 147 -30 36 -30 38 -4 72 31 39 74 34 97 -11 14 -25 6 -52 -20 -71 -11 -8 -18 -26 -18 -45 0 -32 1 -31 86 55 l86 88 -4 64 c-5 82 -26 110 -75 101 -25 -4 -37 -1 -53 15 -40 40 -16 100 39 100 36 0 61 -28 61 -67 0 -17 6 -33 13 -36 36 -14 59 -123 38 -179 -5 -13 -50 -65 -100 -115 -50 -51 -91 -100 -91 -110 0 -12 38 20 110 94 l110 111 0 129 c0 126 -1 130 -25 151 -28 25 -33 63 -9 86 18 19 75 21 92 4 19 -19 14 -66 -8 -85 -18 -16 -20 -30 -20 -146 0 -71 -4 -136 -9 -146 -5 -9 -62 -70 -125 -134 -145 -145 -145 -149 -50 -248 37 -38 71 -66 76 -63 15 9 -2 47 -39 86 -27 27 -37 47 -40 82 l-5 45 101 103 101 103 0 126 c0 109 2 128 18 142 28 26 69 21 89 -9 15 -24 15 -29 2 -53 -8 -14 -29 -30 -47 -36 l-32 -9 0 -84 0 -84 -100 -103 c-110 -113 -120 -137 -79 -189 l22 -27 17 38 c10 21 68 87 129 148 l111 110 0 88 c0 96 6 114 55 167 21 22 35 49 38 75 11 71 76 108 141 81 43 -18 71 -71 61 -117 -14 -64 -101 -100 -154 -63 -22 16 -24 15 -57 -17 l-34 -33 0 -99 0 -100 -125 -127 -125 -127 0 -161 0 -161 30 -16 c37 -19 50 -43 50 -91 0 -30 -7 -44 -40 -75 -22 -21 -40 -42 -40 -46 0 -5 -61 -69 -135 -143 -134 -133 -136 -136 -130 -172 8 -44 -15 -94 -50 -110 -24 -11 -25 -16 -25 -91 l0 -79 -80 -82 -80 -82 0 -122 0 -122 50 0 50 0 0 71 c0 39 4 79 10 89 5 10 66 75 135 145 118 120 125 129 125 167 0 62 24 99 124 195 50 48 119 118 153 154 l61 66 1 206 2 206 -36 17 c-75 35 -88 103 -31 160 19 19 41 34 50 34 13 0 16 14 16 87 l0 87 80 81 c47 49 87 101 99 128 29 68 86 76 111 17 10 -25 10 -34 -5 -56 -15 -24 -22 -26 -60 -21 -42 6 -42 6 -124 -77 l-81 -84 0 -75 c0 -73 1 -76 30 -97 66 -47 74 -115 19 -171 l-29 -30 0 -135 c0 -88 4 -133 10 -129 6 4 10 55 10 122 0 114 0 116 30 150 27 30 30 41 30 98 0 60 -2 66 -40 110 -45 53 -47 60 -20 95 11 14 20 39 20 56 0 34 11 47 47 58 17 5 29 1 48 -18 30 -30 31 -46 6 -77 -13 -17 -29 -23 -56 -24 -57 0 -68 -26 -28 -67 45 -48 53 -69 53 -142 0 -58 -3 -69 -30 -99 -29 -33 -30 -39 -30 -128 l0 -93 45 44 45 44 0 184 0 184 70 72 c63 65 70 77 70 112 0 73 57 116 124 94 45 -15 66 -44 66 -93 0 -69 -66 -111 -133 -84 l-35 15 -61 -64 -61 -64 2 -172 c3 -172 3 -173 26 -176 17 -3 38 11 79 52 47 47 54 59 49 81 -5 21 0 32 24 57 26 25 36 29 63 24 33 -6 77 -47 77 -71 0 -59 -60 -104 -113 -85 -30 10 -34 8 -80 -40 -41 -41 -56 -50 -84 -50 -19 0 -47 -8 -61 -17 -40 -25 -164 -162 -159 -176 2 -6 17 -13 34 -15 25 -3 38 5 73 42 48 50 93 70 144 64 29 -3 35 0 44 24 18 49 84 57 104 12 23 -50 -29 -116 -67 -84 -8 7 -44 15 -79 17 l-64 6 -56 -53 c-42 -40 -64 -53 -95 -57 -23 -3 -38 -10 -34 -15 3 -6 24 -8 47 -5 29 4 48 14 66 36 14 17 35 32 47 34 13 2 33 13 46 25 28 26 45 27 75 6 29 -20 31 -79 3 -94 -31 -16 -56 -12 -85 15 -29 27 -48 24 -76 -10 -21 -25 -66 -45 -102 -45 -28 0 -44 -10 -88 -55 -40 -40 -49 -55 -36 -55 10 0 40 23 67 50 43 44 53 50 90 50 32 0 45 6 61 25 35 45 108 23 108 -33 0 -29 -34 -62 -63 -62 -13 0 -32 9 -42 20 -12 13 -31 20 -56 20 -32 0 -48 -8 -94 -50 -42 -38 -63 -50 -87 -50 -27 0 -46 -15 -125 -93 -92 -92 -93 -94 -93 -143 0 -55 -18 -89 -71 -134 l-34 -29 70 -1 70 0 48 49 c50 53 62 91 26 91 -39 0 -59 19 -59 55 0 63 71 84 104 32 24 -37 -3 -149 -45 -194 -50 -51 -65 -57 -164 -64 l-90 -5 90 -2 c50 -1 97 3 105 8 8 5 50 44 92 87 64 63 78 84 78 109 0 65 79 87 110 31 13 -24 13 -30 0 -55 -13 -22 -23 -27 -54 -28 -33 -1 -47 -11 -125 -88 l-86 -86 -90 0 c-120 0 -154 -11 -204 -65 -39 -43 -41 -47 -41 -110 0 -64 0 -65 28 -65 47 0 203 37 297 70 179 63 321 155 463 297 107 107 169 199 275 403 162 313 227 543 227 802 0 336 -120 600 -390 861 -89 87 -126 115 -197 151 -264 132 -572 181 -893 141z" fill="#ffffff"/>
<path d="M4205 1254 c-101 -25 -180 -84 -210 -156 -25 -61 -20 -164 11 -227 35 -69 94 -108 250 -164 143 -53 156 -59 183 -93 30 -39 36 -85 16 -128 -24 -49 -64 -69 -130 -64 -66 6 -108 35 -131 93 l-19 45 -99 0 -98 0 7 -37 c32 -172 218 -278 432 -245 82 13 116 28 168 74 49 43 77 101 83 174 6 84 -16 148 -71 201 -50 48 -78 63 -203 109 -122 44 -167 67 -193 100 -29 37 -28 100 3 138 20 25 31 30 83 34 79 6 118 -14 144 -74 l20 -44 94 0 c53 0 97 4 100 10 13 20 -28 114 -69 158 -62 68 -129 94 -251 98 -55 2 -109 1 -120 -2z" fill="#ffffff"/>
<path d="M280 765 l0 -485 290 0 290 0 0 75 0 75 -195 0 -195 0 0 135 0 135 170 0 170 0 0 70 0 70 -170 0 -170 0 0 130 0 130 195 0 195 0 0 75 0 75 -290 0 -290 0 0 -485z" fill="#ffffff"/>
<path d="M940 1245 c0 -3 68 -107 150 -232 83 -124 150 -231 150 -237 0 -6 -39 -74 -86 -151 -143 -233 -204 -334 -204 -340 0 -3 47 -5 104 -5 l103 0 70 118 c38 64 82 138 97 164 15 27 28 48 30 48 2 0 52 -74 112 -165 l109 -165 112 0 112 0 -159 241 -159 241 66 106 c36 59 104 167 150 240 45 73 83 135 83 138 0 3 -48 3 -107 2 l-107 -3 -51 -86 c-28 -47 -68 -115 -88 -152 -21 -36 -42 -69 -47 -72 -5 -3 -57 66 -116 155 l-107 160 -109 0 c-59 0 -108 -2 -108 -5z" fill="#ffffff"/>
<path d="M1910 765 l0 -485 95 0 95 0 0 485 0 485 -95 0 -95 0 0 -485z" fill="#ffffff"/>
<path d="M2280 765 l0 -485 95 0 95 0 2 331 3 332 95 -144 c52 -79 150 -228 218 -331 l123 -188 95 0 94 0 0 485 0 485 -95 0 -95 0 -2 -332 -3 -332 -91 140 c-50 76 -148 226 -217 332 l-126 192 -96 0 -95 0 0 -485z" fill="#ffffff"/>
<path d="M3280 765 l0 -485 290 0 290 0 0 75 0 75 -195 0 -195 0 0 135 0 135 175 0 176 0 -3 68 -3 67 -170 5 -170 5 -3 128 -3 127 196 0 195 0 0 75 0 75 -290 0 -290 0 0 -485z" fill="#ffffff"/>
</g>
</svg>