<?xml version="1.0" encoding="utf-8"?>
<!-- Generator: Adobe Illustrator 28.1.0, SVG Export Plug-In . SVG Version: 6.00 Build 0)  -->
<svg version="1.1" id="LASSONDE" xmlns="http://www.w3.org/2000/svg" xmlns:xlink="http://www.w3.org/1999/xlink" x="0px" y="0px"
	 viewBox="0 0 1072.1 162" style="enable-background:new 0 0 1072.1 162;" xml:space="preserve">
<style type="text/css">
	.st0{fill:#FFFFFF;}
</style>
<g>
	<path class="st0" d="M20.4,118.8c-1,0-1.8-0.3-2.2-0.8c-0.3-0.4-0.3-0.8-0.2-1.3c0.4-1.4,2.6-2.4,4.3-2.7
		c41.6-6.2,78-9.2,111.2-9.2c15.6,0,30.7,0.7,45,2c3.7,0.4,3.9,1,4,1.3c0.1,0.2,0,0.5-0.1,0.7c-0.2,0.3-0.6,0.5-2,0.5
		c-0.5,0-1.1,0-1.8-0.1c-12.2-1-25.1-1.5-38.3-1.5c-35.4,0-74.3,3.6-118.9,11C21.1,118.7,20.8,118.8,20.4,118.8z"/>
	<path class="st0" d="M13.1,127.4c-1,0-1.7-0.3-2.1-0.8c-0.3-0.4-0.3-0.8-0.2-1.3c0.5-1.4,2.6-2.4,4.4-2.8
		c46.1-7.7,86.3-11.4,123-11.4c12.5,0,24.8,0.4,36.5,1.3c3.8,0.3,4,0.9,4.1,1.2c0.1,0.2,0,0.5-0.1,0.7c-0.2,0.3-0.7,0.5-2.2,0.5
		c-0.5,0-1,0-1.6-0.1c-9.7-0.6-19.9-0.9-30.1-0.9c-38.8,0-81.4,4.4-130.3,13.4C13.9,127.4,13.5,127.4,13.1,127.4z"/>
	<path class="st0" d="M12.9,134.9c-1,0-1.8-0.3-2.1-0.8c-0.3-0.4-0.3-0.8-0.2-1.3c0.4-1.4,2.5-2.5,4.3-2.8
		c48.8-8.7,91.5-12.9,130.4-12.9c11.1,0,22,0.3,32.5,1c3.8,0.3,4.1,0.9,4.2,1.1c0.1,0.2,0.1,0.5-0.1,0.8c-0.2,0.3-0.5,0.5-2.4,0.5
		c-0.4,0-1,0-1.5-0.1c-8.6-0.5-17.4-0.7-26.4-0.7c-41,0-86,4.9-137.4,14.8C13.8,134.9,13.4,134.9,12.9,134.9z"/>
	<path class="st0" d="M2.3,144.4c-1,0-1.7-0.3-2-0.8c-0.3-0.4-0.3-0.8-0.2-1.3c0.4-1.4,2.6-2.5,4.4-2.9
		c54.1-10.9,101.5-16.2,144.6-16.2c7.2,0,14.4,0.1,21.4,0.4c4,0.2,4.2,0.8,4.3,1.1c0.1,0.2,0,0.5-0.1,0.7c-0.2,0.2-0.4,0.6-2.9,0.6
		c-0.3,0-0.7,0-1.1,0c-5.1-0.2-10.4-0.2-15.6-0.2c-45.1,0-94.6,6-151.3,18.3C3.3,144.4,2.8,144.4,2.3,144.4z"/>
	<path class="st0" d="M5.4,151.1c-1,0-1.7-0.3-2.1-0.8C3,150,3,149.6,3.1,149.1c0.4-1.4,2.6-2.5,4.5-2.9
		c55.2-11.2,103.6-16.6,147.9-16.6c7.3,0,14.5,0.2,21.6,0.4c4,0.2,4.3,0.8,4.4,1.1c0.1,0.2,0.1,0.5-0.1,0.7
		c-0.2,0.3-0.4,0.6-2.9,0.6c-0.3,0-0.7,0-1.1,0c-5.2-0.2-10.6-0.3-15.9-0.3c-46.2,0-96.8,6.1-154.5,18.7
		C6.4,151,5.9,151.1,5.4,151.1z"/>
	<path class="st0" d="M19,158.7c-0.5,0-0.9-0.2-1.2-0.6c-0.5-0.6-0.6-1.7-0.3-3C26.9,114.7,42.1,45.3,50.3,9.9
		c0.8-3.7,1.5-3.7,1.9-3.7l0,0c0.2,0,0.5,0.1,0.6,0.3c0.1,0.2,0.5,0.7-0.1,3.7c-7.9,36.8-22.4,107-30.1,144.3
		c-0.4,2-1.7,3.8-3.1,4.2C19.3,158.7,19.2,158.7,19,158.7z"/>
	<path class="st0" d="M26.5,162c-0.5,0-1-0.2-1.3-0.6c-0.5-0.6-0.7-1.7-0.4-2.9C32.8,121.3,47.2,51.3,55,14.7
		c0.8-3.7,1.5-3.7,1.8-3.7c0,0,0,0,0,0c0.2,0,0.5,0.1,0.6,0.3c0.1,0.2,0.5,0.7-0.1,3.6C50.5,50.4,37,120.2,30,157.8
		c-0.4,2-1.7,3.8-3,4.1C26.8,162,26.6,162,26.5,162z"/>
	<path class="st0" d="M37.2,149.3c-0.5,0-0.9-0.2-1.3-0.6c-0.5-0.6-0.7-1.7-0.4-2.9C42.7,109.5,56.2,40,63.3,3.6C64,0,64.7,0,65,0
		c0.2,0,0.5,0.1,0.6,0.3c0.1,0.2,0.5,0.6,0,3.6c-6.4,35.8-19,105.1-25.1,141.3c-0.3,2-1.6,3.7-2.9,4
		C37.4,149.3,37.3,149.3,37.2,149.3z"/>
	<path class="st0" d="M44.2,155.6c-0.5,0-1-0.2-1.3-0.6c-0.5-0.6-0.7-1.7-0.5-2.8c6.1-33.6,18.4-101.3,25.4-140.3
		c0.6-3.6,1.3-3.6,1.7-3.6c0.2,0,0.5,0.1,0.6,0.3c0.4,0.4,0.4,1.6,0.1,3.6C64.6,46.8,53,115.3,47.6,151.6c-0.3,1.9-1.6,3.7-2.9,4
		C44.5,155.6,44.4,155.6,44.2,155.6z"/>
	<path class="st0" d="M53.4,149.9c-0.5,0-1-0.2-1.3-0.6c-0.5-0.6-0.7-1.7-0.5-2.8C56.7,114.7,68,48.1,74.5,7.4
		c0.6-3.6,1.2-3.6,1.6-3.6c0.2,0,0.5,0.1,0.6,0.3c0.4,0.4,0.4,1.6,0.1,3.5c-5,35.8-15.7,104-20.1,138.3c-0.2,1.9-1.5,3.7-2.8,4
		C53.7,149.9,53.6,149.9,53.4,149.9z"/>
</g>
<g>
	<path class="st0" d="M104,30h9.8v46.1h23.4V85H104V30z"/>
	<path class="st0" d="M168.1,30h8.5l23.7,55h-11.2L184,72.4h-23.8l-5,12.6h-11L168.1,30z M180.6,64l-8.5-22.4L163.5,64H180.6z"/>
	<path class="st0" d="M237.2,41.8c-2.1-3-5.8-4.3-9.6-4.3c-4.5,0-9,2-9,7.1c0,11,26.1,4.7,26.1,24.3c0,11.8-9.3,17.6-20.1,17.6
		c-6.8,0-13.5-2.1-18-7.5l7.4-7.1c2.4,3.7,6.5,5.7,10.9,5.7c4.5,0,9.6-2.5,9.6-7.5c0-12-26.1-5.1-26.1-24.8
		c0-11.3,10.1-16.6,20.3-16.6c5.7,0,11.5,1.6,15.8,5.7L237.2,41.8z"/>
	<path class="st0" d="M284.6,41.8c-2.1-3-5.8-4.3-9.6-4.3c-4.5,0-9,2-9,7.1c0,11,26.1,4.7,26.1,24.3c0,11.8-9.3,17.6-20.1,17.6
		c-6.8,0-13.5-2.1-18-7.5l7.4-7.1c2.4,3.7,6.5,5.7,10.9,5.7c4.5,0,9.6-2.5,9.6-7.5c0-12-26.1-5.1-26.1-24.8
		c0-11.3,10.1-16.6,20.3-16.6c5.7,0,11.5,1.6,15.8,5.7L284.6,41.8z"/>
	<path class="st0" d="M329.7,28.6c17.2-0.3,29.3,11.2,29.3,28.8c0,17.2-12.1,28.7-29.3,29c-16.9,0-29.1-11.5-29.1-28.7
		C300.6,40.1,312.8,28.6,329.7,28.6z M329.8,77.5c11.4,0,19-8.7,19-20.4c0-11-7.5-19.7-19-19.7c-11.3,0-18.9,8.7-18.9,19.7
		C310.9,68.8,318.4,77.5,329.8,77.5z"/>
	<path class="st0" d="M368.1,30h13l26.6,40.9l0.2,0.2h-0.2l0.2-0.2V30h9.8v55h-12.4L378,42.8h-0.2V85h-9.8V30z"/>
	<path class="st0" d="M432.8,30h21.7c14.4,0,28,8.9,28,27.5c0,18.8-15.9,27.5-29.1,27.5h-20.5V30z M449.9,76.1
		c12.3,0,22.3-5.3,22.3-18.6c0-13.4-8.7-18.6-20.7-18.6h-8.9v37.3H449.9z"/>
	<path class="st0" d="M491.5,30h36.4v8.9h-26.6v13.5h25.2v8.9h-25.2v14.9h28V85h-37.8V30z"/>
</g>
<g>
	<path class="st0" d="M197.4,119.6c0.8,1.2,2.2,1.8,3.5,1.8c1.5,0,3.3-0.9,3.3-2.8c0-3.8-8.2-1.5-8.2-8c0-2,1.6-4.7,5.6-4.7
		c1.8,0,3.6,0.4,4.8,1.9l-1.8,1.7c-0.6-0.9-1.7-1.5-3-1.5c-2.5,0-3.3,1.5-3.3,2.5c0,4.2,8.2,1.7,8.2,7.7c0,3.2-2.6,5.2-5.8,5.2
		c-2.1,0-4.2-0.7-5.3-2.3L197.4,119.6z"/>
	<path class="st0" d="M222.8,110.1c-0.9-1.2-2.5-1.9-4-1.9c-3.7,0-6.2,3-6.2,6.8c0,3.5,2.3,6.5,6.2,6.5c1.9,0,3.4-0.8,4.4-2.2
		l1.9,1.4c-0.5,0.7-2.5,2.9-6.3,2.9c-5.3,0-8.6-4.4-8.6-8.6c0-5.2,3.6-8.9,8.7-8.9c2.2,0,4.5,0.8,5.8,2.6L222.8,110.1z"/>
	<path class="st0" d="M228.9,106.5h2.3v6.9h8.6v-6.9h2.3v16.7h-2.3v-7.6h-8.6v7.6h-2.3V106.5z"/>
	<path class="st0" d="M246.5,114.8c0-4.9,3.6-8.8,8.7-8.8c5.1,0,8.7,3.8,8.7,8.8c0,4.9-3.6,8.8-8.7,8.8
		C250.1,123.5,246.5,119.7,246.5,114.8z M261.5,114.8c0-3.7-2.5-6.6-6.3-6.6c-3.8,0-6.3,3-6.3,6.6c0,3.6,2.5,6.6,6.3,6.6
		C259,121.4,261.5,118.4,261.5,114.8z"/>
	<path class="st0" d="M267.2,114.8c0-4.9,3.6-8.8,8.7-8.8c5.1,0,8.7,3.8,8.7,8.8c0,4.9-3.6,8.8-8.7,8.8
		C270.8,123.5,267.2,119.7,267.2,114.8z M282.2,114.8c0-3.7-2.5-6.6-6.3-6.6c-3.8,0-6.3,3-6.3,6.6c0,3.6,2.5,6.6,6.3,6.6
		C279.7,121.4,282.2,118.4,282.2,114.8z"/>
	<path class="st0" d="M289,106.5h2.3V121h7.7v2.1H289V106.5z"/>
	<path class="st0" d="M311.9,114.8c0-4.9,3.6-8.8,8.7-8.8c5.1,0,8.7,3.8,8.7,8.8c0,4.9-3.6,8.8-8.7,8.8
		C315.5,123.5,311.9,119.7,311.9,114.8z M326.9,114.8c0-3.7-2.5-6.6-6.3-6.6c-3.8,0-6.3,3-6.3,6.6c0,3.6,2.5,6.6,6.3,6.6
		C324.4,121.4,326.9,118.4,326.9,114.8z"/>
	<path class="st0" d="M333.7,106.5h10.5v2.1h-8.2v5.2h7.6v2.1h-7.6v7.2h-2.3V106.5z"/>
	<path class="st0" d="M357.9,106.5h10.8v2.1h-8.5v5h7.9v2.1h-7.9v5.3h8.9v2.1h-11.2V106.5z"/>
	<path class="st0" d="M373.5,106.5h3l9.2,13.7h0v-13.7h2.3v16.7h-2.9l-9.3-13.7h0v13.7h-2.3V106.5z"/>
	<path class="st0" d="M407.6,113.8v8.2c-1.6,1-4.3,1.5-6.3,1.5c-5.7,0-8.9-4-8.9-8.8c0-4.9,3.6-8.8,8.7-8.8c3.1,0,4.9,0.8,6.2,2.2
		l-1.6,1.7c-1.4-1.3-2.9-1.8-4.6-1.8c-3.8,0-6.3,3-6.3,6.6c0,3.8,2.8,6.6,6.5,6.6c1.6,0,3.1-0.3,4.1-0.9v-4.6h-3.7v-2.1H407.6z"/>
	<path class="st0" d="M412.9,106.5h2.3v16.7h-2.3V106.5z"/>
	<path class="st0" d="M420.6,106.5h3l9.2,13.7h0v-13.7h2.3v16.7h-2.9l-9.3-13.7h0v13.7h-2.3V106.5z"/>
	<path class="st0" d="M440.5,106.5h10.8v2.1h-8.5v5h7.9v2.1h-7.9v5.3h8.9v2.1h-11.2V106.5z"/>
	<path class="st0" d="M456,106.5h10.8v2.1h-8.5v5h7.9v2.1h-7.9v5.3h8.9v2.1H456V106.5z"/>
	<path class="st0" d="M471.6,106.5h5.9c4.3,0,5.3,2.6,5.3,4.7c0,2.1-1.6,4.1-4.1,4.4l4.7,7.6h-2.8l-4.2-7.3h-2.5v7.3h-2.3V106.5z
		 M473.8,113.8h3c1.8,0,3.6-0.4,3.6-2.7c0-2.3-1.8-2.7-3.6-2.7h-3V113.8z"/>
	<path class="st0" d="M487.1,106.5h2.3v16.7h-2.3V106.5z"/>
	<path class="st0" d="M494.8,106.5h3l9.2,13.7h0v-13.7h2.3v16.7h-2.9l-9.3-13.7h0v13.7h-2.3V106.5z"/>
	<path class="st0" d="M528.9,113.8v8.2c-1.6,1-4.3,1.5-6.3,1.5c-5.7,0-8.9-4-8.9-8.8c0-4.9,3.6-8.8,8.7-8.8c3.1,0,4.9,0.8,6.2,2.2
		l-1.6,1.7c-1.4-1.3-2.9-1.8-4.6-1.8c-3.8,0-6.3,3-6.3,6.6c0,3.8,2.8,6.6,6.5,6.6c1.6,0,3.1-0.3,4.1-0.9v-4.6H523v-2.1H528.9z"/>
</g>
<rect x="571.1" y="9" class="st0" width="3.6" height="144"/>
<g>
	<path class="st0" d="M629.6,114.2c0,5.4-3.3,6.8-6,6.8c-2.7,0-6-1.4-6-6.8v-9.9h2.1v10.5c0,2.2,1,4.5,3.9,4.5s3.9-2.3,3.9-4.5
		v-10.5h2.1V114.2z"/>
	<path class="st0" d="M652.2,104.3h2.8l6.6,11.4c0.3,0.6,0.9,1.7,1.1,2.2h0.1c0-0.6-0.1-1.3-0.1-2v-11.6h2.1v16.3H662l-6.5-11.5
		c-0.3-0.6-0.9-1.7-1.1-2.3h-0.1c0,0.6,0.1,1.3,0.1,2v11.7h-2.1V104.3z"/>
	<rect x="687.5" y="104.3" class="st0" width="2.1" height="16.3"/>
	<path class="st0" d="M716.8,116.7c0.2,0.7,0.4,1.3,0.6,2h0.1c0.2-0.7,0.3-1.3,0.5-2l4.1-12.3h2.2l-5.6,16.3H716l-5.4-16.3h2.3
		L716.8,116.7z"/>
	<polygon class="st0" points="745.2,104.3 755.1,104.3 755.1,106 747.3,106 747.3,111.4 754.7,111.4 754.7,113 747.3,113 747.3,119 
		755.3,119 755.3,120.7 745.2,120.7 	"/>
	<path class="st0" d="M779.2,111.6h3.3c2.4,0,3.1-1.4,3.1-2.7c0-2.7-2.4-2.8-3.3-2.8h-3.1V111.6z M777.1,104.3h5.6
		c2.8,0,5,1.4,5,4.4c0,3.1-2.2,3.9-3,4.2l3.9,7.8h-2.5l-3.4-7.4h-3.5v7.4h-2.1V104.3z"/>
	<path class="st0" d="M811,116.8c0.3,1.1,1.2,2.5,3.4,2.5c2.1,0,3.2-1.5,3.2-2.8c0-1.8-1.1-2.3-1.7-2.6l-3.9-1.8
		c-1.5-0.7-2.4-1.9-2.4-3.6c0-3.2,2.8-4.5,5.1-4.5c2.3,0,4.2,0.8,5,3l-2.1,0.7c-0.4-1.5-1.8-2-2.9-2c-2,0-2.9,1.1-2.9,2.6
		c0,1.6,1.1,2.1,2.2,2.6l2.9,1.3c1,0.4,3,1.4,3,4.2c0,1.5-0.9,4.6-5.6,4.6c-3.6,0-4.9-2.2-5.3-3.5L811,116.8z"/>
	<rect x="841.7" y="104.3" class="st0" width="2.1" height="16.3"/>
	<polygon class="st0" points="869.6,106.2 864.9,106.2 864.9,104.3 876.5,104.3 876.5,106.2 871.7,106.2 871.7,120.7 869.6,120.7 	
		"/>
	<path class="st0" d="M902.7,100h2.5l-3.3,3.3h-1.6L902.7,100z M897.4,104.3h9.8v1.7h-7.7v5.3h7.3v1.7h-7.3v5.9h7.9v1.7h-10V104.3z"
		/>
	<path class="st0" d="M629.7,146.2c0,5.4-3.3,6.8-6,6.8c-2.7,0-6-1.4-6-6.8v-9.9h2.1v10.5c0,2.2,1,4.5,3.9,4.5
		c2.9,0,3.9-2.3,3.9-4.5v-10.5h2.1V146.2z"/>
	<path class="st0" d="M652.1,136.3h2.8l6.6,11.4c0.3,0.6,0.9,1.7,1.1,2.2h0.1c0-0.5-0.1-1.3-0.1-2v-11.6h2.1v16.3h-2.8l-6.5-11.5
		c-0.3-0.6-0.9-1.7-1.1-2.2h-0.1c0,0.5,0.1,1.3,0.1,2v11.7h-2.1V136.3z"/>
	<rect x="687.2" y="136.3" class="st0" width="2.1" height="16.3"/>
	<path class="st0" d="M716.4,148.6c0.2,0.7,0.4,1.3,0.6,2h0.1c0.2-0.7,0.3-1.3,0.6-2l4.1-12.3h2.2l-5.6,16.3h-2.7l-5.4-16.3h2.3
		L716.4,148.6z"/>
	<polygon class="st0" points="744.7,136.3 754.5,136.3 754.5,138 746.8,138 746.8,143.3 754.1,143.3 754.1,145 746.8,145 746.8,151 
		754.8,151 754.8,152.7 744.7,152.7 	"/>
	<path class="st0" d="M778.6,143.6h3.3c2.4,0,3.1-1.4,3.1-2.7c0-2.7-2.4-2.8-3.3-2.8h-3.1V143.6z M776.5,136.3h5.6
		c2.8,0,5,1.4,5,4.4c0,3.1-2.2,3.9-3,4.2l3.9,7.8h-2.5l-3.4-7.4h-3.5v7.4h-2.1V136.3z"/>
	<path class="st0" d="M810.2,148.8c0.3,1.1,1.2,2.5,3.4,2.5c2.1,0,3.2-1.5,3.2-2.8c0-1.8-1.1-2.3-1.7-2.6l-3.9-1.8
		c-1.5-0.7-2.4-1.9-2.4-3.6c0-3.2,2.8-4.5,5.1-4.5c2.3,0,4.2,0.8,5,3l-2.1,0.7c-0.4-1.5-1.8-2-2.9-2c-2,0-2.9,1.1-2.9,2.6
		c0,1.6,1.1,2.1,2.2,2.6l2.9,1.3c1,0.4,3,1.4,3,4.2c0,1.5-0.9,4.6-5.6,4.6c-3.6,0-4.9-2.2-5.3-3.5L810.2,148.8z"/>
	<rect x="840.8" y="136.3" class="st0" width="2.1" height="16.3"/>
	<polygon class="st0" points="868.5,138.2 863.8,138.2 863.8,136.3 875.4,136.3 875.4,138.2 870.6,138.2 870.6,152.7 868.5,152.7 	
		"/>
	<path class="st0" d="M900.5,146l-5.8-9.7h2.5l3.7,6.4c0.3,0.4,0.5,0.9,0.7,1.4h0c0.2-0.5,0.4-0.9,0.7-1.4l3.7-6.4h2.4l-5.8,9.7v6.7
		h-2.1V146z"/>
	<rect x="617.8" y="127.2" class="st0" width="290.2" height="1"/>
	<path class="st0" d="M632.3,81.2h2.3c4.7,0,5.8-1.8,5.8-6.7V59.6l-18.1-32.5c-3.7-6.6-4.9-7.5-9.5-7.5h-0.8v-2.8
		c4.1,0.1,8,0.3,11.9,0.3c4,0,8-0.2,12-0.3v2.8H634c-2,0-3.5,0.7-3.5,3c0,1.3,1.1,3.9,2.1,5.6l14,25.2l13-24.9
		c0.8-1.4,2.5-5,2.5-6.7c0-1.6-1.1-2.2-3.7-2.2h-1.8v-2.8c3.9,0.1,6.4,0.3,9.3,0.3c3.1,0,6.3-0.2,9.3-0.3v2.8H673
		c-3.9,0-4.7,1.2-7.6,6.7l-16.7,31.2v16.9c0,5.6,2.1,6.7,5.8,6.7h1.9V84c-4-0.1-8-0.3-12-0.3c-4.2,0-8.5,0.2-12,0.3V81.2z"/>
	<path class="st0" d="M716.9,19.5c-13.2,0-25.7,8.1-25.7,30c0,15.3,10,32.1,26.2,32.1c17.5,0,25.5-12.8,25.5-30.2
		C743,36.2,733.4,19.5,716.9,19.5 M717.2,15.6c18.8,0,35.2,15.2,35.2,34.8c0,16.6-12.8,34.8-35.5,34.8c-20.4,0-35.1-15.4-35.1-34.1
		C681.8,30.1,698.6,15.6,717.2,15.6"/>
	<path class="st0" d="M783.4,49.1c1.6,0.6,4,0.7,6.4,0.7c8.5,0,15.5-3.9,15.5-13.7c0-4.2-2.8-15.7-16-15.7c-2.3,0-4.1,0.2-5.9,0.4
		V49.1z M767.2,81.2h1.7c4.3,0,6.2-1.6,6.2-7.7V27.4c0-6.1-1.9-7.7-6.2-7.7h-1.7v-2.8c3.3,0.1,7.8,0.3,12.1,0.3
		c6.3,0,10.9-0.3,15-0.3c16.7,0,19.7,13.1,19.7,17.5c0,12.4-8.7,16.1-13.4,17.6l12.6,21c5.2,8.5,6.7,9.1,14.3,9.5v2
		c-1.8,0-3.5,0.1-5.3,0.1c-8.3,0-12.2-1-17.2-9.2l-11-18c-2.2-3.5-3.4-3.7-10.7-3.9v17.8c0,9,1.6,10,5.4,10h2.7V84
		c-4.2-0.1-8.1-0.3-12.3-0.3c-4.2,0-8.8,0.2-12.1,0.3V81.2z"/>
	<path class="st0" d="M842.3,81.2h1.7c4.3,0,6.2-1.6,6.2-7.7V27.4c0-6.1-1.9-7.7-6.2-7.7h-1.7v-2.8c3.3,0.1,7.8,0.3,12.1,0.3
		c4.2,0,8.1-0.2,12.3-0.3v2.8h-2.7c-3.8,0-5.4,1-5.4,10v22.2l20.7-23c0.9-1,4.5-4.8,4.5-6.7c0-1.7-1.3-2.5-3.1-2.5h-1.7v-2.8
		c3.5,0.1,7.5,0.3,11.1,0.3c3.8,0,7.5-0.2,11.2-0.3v2.8h-1.7c-4.6,0-6.2,0.8-11.8,6.7l-18.2,19.2L894,74c5.3,6.2,8,7.2,11.9,7.2h1.4
		V84c-3-0.1-6.1-0.3-9.2-0.3c-3,0-6.1,0.2-9.2,0.3c-0.5-2.7-0.8-4.2-6.1-10.3l-19.3-22.2l-4.9,5.2v14.4c0,9,1.6,10,5.4,10h2.7V84
		c-4.2-0.1-8.1-0.3-12.3-0.3c-4.2,0-8.8,0.2-12.1,0.3V81.2z"/>
	<path class="st0" d="M1028.3,135.3c-24.4,0-45.5-15.1-45.5-48V9h-54.5v143.7h143.7v-52.4C1067.8,121.2,1052.6,135.3,1028.3,135.3"
		/>
	<path class="st0" d="M1028.3,105.9c13.1,0,17.1-11.5,17.1-22.7V9H1012v74.2C1012,94.9,1016.1,105.9,1028.3,105.9"/>
</g>
</svg>
